{"asset":{"version":"2.0","generator":"Blockbench 4.8.3 glTF exporter"},"scenes":[{"nodes":[4],"name":"blockbench_export"}],"scene":0,"nodes":[{"name":"pot","mesh":0},{"rotation":[0.40274668985873724,0,0,0.9153114791194471],"name":"leaf","mesh":1},{"rotation":[0.9238795325112867,0,0,0.38268343236508984],"name":"leaf","mesh":2},{"name":"root","children":[0,1,2]},{"children":[3]}],"bufferViews":[{"buffer":0,"byteOffset":0,"byteLength":1296,"target":34962,"byteStride":12},{"buffer":0,"byteOffset":1296,"byteLength":1296,"target":34962,"byteStride":12},{"buffer":0,"byteOffset":2592,"byteLength":864,"target":34962,"byteStride":8},{"buffer":0,"byteOffset":3456,"byteLength":288,"target":34963},{"buffer":0,"byteOffset":3744,"byteLength":48,"target":34962,"byteStride":12},{"buffer":0,"byteOffset":3792,"byteLength":48,"target":34962,"byteStride":12},{"buffer":0,"byteOffset":3840,"byteLength":32,"target":34962,"byteStride":8},{"buffer":0,"byteOffset":3872,"byteLength":12,"target":34963},{"buffer":0,"byteOffset":3884,"byteLength":48,"target":34962,"byteStride":12},{"buffer":0,"byteOffset":3932,"byteLength":48,"target":34962,"byteStride":12},{"buffer":0,"byteOffset":3980,"byteLength":32,"target":34962,"byteStride":8},{"buffer":0,"byteOffset":4012,"byteLength":12,"target":34963}],"buffers":[{"byteLength":4024,"uri":"data:application/octet-stream;base64,"}],"accessors":[{"bufferView":0,"componentType":5126,"count":108,"max":[0.21650634706020355,0.25,0.1875],"min":[-0.21650634706020355,0,-0.1875],"type":"VEC3"},{"bufferView":1,"componentType":5126,"count":108,"max":[0.8660253882408142,1,1],"min":[-0.8660253882408142,-1,-1],"type":"VEC3"},{"bufferView":2,"componentType":5126,"count":108,"max":[0.5625,0.5625],"min":[0.0011218750150874257,0],"type":"VEC2"},{"bufferView":3,"componentType":5123,"count":144,"max":[107],"min":[0],"type":"SCALAR"},{"bufferView":4,"componentType":5126,"count":4,"max":[0.1875,0.125,-0.125],"min":[-0.1875,0.125,-0.5],"type":"VEC3"},{"bufferView":5,"componentType":5126,"count":4,"max":[0,1,0],"min":[0,1,0],"type":"VEC3"},{"bufferView":6,"componentType":5126,"count":4,"max":[0.375,0.375],"min":[0,0],"type":"VEC2"},{"bufferView":7,"componentType":5123,"count":6,"max":[3],"min":[0],"type":"SCALAR"},{"bufferView":8,"componentType":5126,"count":4,"max":[0.1875,-0.125,-0.125],"min":[-0.1875,-0.125,-0.5],"type":"VEC3"},{"bufferView":9,"componentType":5126,"count":4,"max":[0,1,0],"min":[0,1,0],"type":"VEC3"},{"bufferView":10,"componentType":5126,"count":4,"max":[0.375,0.375],"min":[0,0],"type":"VEC2"},{"bufferView":11,"componentType":5123,"count":6,"max":[3],"min":[0],"type":"SCALAR"}],"materials":[{"pbrMetallicRoughness":{"metallicFactor":0,"roughnessFactor":1,"baseColorTexture":{"index":0}},"alphaMode":"MASK","alphaCutoff":0.05,"doubleSided":true},{"pbrMetallicRoughness":{"metallicFactor":0,"roughnessFactor":1,"baseColorTexture":{"index":1}},"alphaMode":"MASK","alphaCutoff":0.05,"doubleSided":true}],"textures":[{"sampler":0,"source":0,"name":"pot.png"},{"sampler":1,"source":1,"name":"leaves.png"}],"samplers":[{"magFilter":9728,"minFilter":9728,"wrapS":33071,"wrapT":33071},{"magFilter":9728,"minFilter":9728,"wrapS":33071,"wrapT":33071}],"images":[{"mimeType":"image/png","uri":"data:image/png;base64,"},{"mimeType":"image/png","uri":"data:image/png;base64,"}],"meshes":[{"primitives":[{"mode":4,"attributes":{"POSITION":0,"NORMAL":1,"TEXCOORD_0":2},"indices":3,"material":0}]},{"primitives":[{"mode":4,"attributes":{"POSITION":4,"NORMAL":5,"TEXCOORD_0":6},"indices":7,"material":1}]},{"primitives":[{"mode":4,"attributes":{"POSITION":8,"NORMAL":9,"TEXCOORD_0":10},"indices":11,"material":1}]}]}